name p5_grf_mean_speed_1.4
datacolumns 13
datarows 63
range 0.0000000000 0.6200000000
endheader
time	grf_x_l_mean	grf_x_l_var	grf_y_l_mean	grf_y_l_var	grf_z_l_mean	grf_z_l_var	grf_x_r_mean	grf_x_r_var	grf_y_r_mean	grf_y_r_var	grf_z_r_mean	grf_z_r_var
0.0000000000	167.2865128936	1.0000000000	762.7277247239	1.0000000000	0.0000000000	0.0000000000	13.3059906995	1.0000000000	11.2736868115	1.0000000000	0.0000000000	0.0000000000
0.0100000000	177.7180409696	1.0000000000	740.4936978713	1.0000000000	0.0000000000	0.0000000000	19.1474775720	1.0000000000	45.5956961012	1.0000000000	0.0000000000	0.0000000000
0.0200000000	184.9456944932	1.0000000000	702.9538455590	1.0000000000	0.0000000000	0.0000000000	22.1899391643	1.0000000000	100.8063016037	1.0000000000	0.0000000000	0.0000000000
0.0300000000	186.7164653171	1.0000000000	648.3139354027	1.0000000000	0.0000000000	0.0000000000	16.9522108852	1.0000000000	177.0253842935	1.0000000000	0.0000000000	0.0000000000
0.0400000000	180.4836731026	1.0000000000	576.3952251253	1.0000000000	0.0000000000	0.0000000000	-0.3226932894	1.0000000000	270.3284166259	1.0000000000	0.0000000000	0.0000000000
0.0500000000	164.6138409763	1.0000000000	489.8531064271	1.0000000000	0.0000000000	0.0000000000	-26.8266911489	1.0000000000	373.0982033519	1.0000000000	0.0000000000	0.0000000000
0.0600000000	140.1431618752	1.0000000000	394.7237975684	1.0000000000	0.0000000000	0.0000000000	-57.4653265620	1.0000000000	474.7592973782	1.0000000000	0.0000000000	0.0000000000
0.0700000000	108.8516489861	1.0000000000	299.4128822333	1.0000000000	0.0000000000	0.0000000000	-88.1412082144	1.0000000000	565.3053543874	1.0000000000	0.0000000000	0.0000000000
0.0800000000	74.5677786484	1.0000000000	212.7338502399	1.0000000000	0.0000000000	0.0000000000	-114.1569932657	1.0000000000	638.6525286612	1.0000000000	0.0000000000	0.0000000000
0.0900000000	44.1381422129	1.0000000000	141.0600937581	1.0000000000	0.0000000000	0.0000000000	-131.6758668979	1.0000000000	695.0647462486	1.0000000000	0.0000000000	0.0000000000
0.1000000000	21.8272286528	1.0000000000	87.0957021769	1.0000000000	0.0000000000	0.0000000000	-140.8576265466	1.0000000000	739.3813626394	1.0000000000	0.0000000000	0.0000000000
0.1100000000	7.2328052571	1.0000000000	49.8254974085	1.0000000000	0.0000000000	0.0000000000	-143.5903448031	1.0000000000	775.5671321883	1.0000000000	0.0000000000	0.0000000000
0.1200000000	-0.3122328917	1.0000000000	25.6607776816	1.0000000000	0.0000000000	0.0000000000	-140.8876317170	1.0000000000	803.9333882140	1.0000000000	0.0000000000	0.0000000000
0.1300000000	-2.4117569056	1.0000000000	10.6929421872	1.0000000000	0.0000000000	0.0000000000	-133.2235737961	1.0000000000	823.0850772793	1.0000000000	0.0000000000	0.0000000000
0.1400000000	-2.4217797138	1.0000000000	2.1910418667	1.0000000000	0.0000000000	0.0000000000	-123.3073154246	1.0000000000	832.3228835329	1.0000000000	0.0000000000	0.0000000000
0.1500000000	0.0000000000	1.0000000000	0.0000000000	1.0000000000	0.0000000000	0.0000000000	-113.7366609383	1.0000000000	831.9993257587	1.0000000000	0.0000000000	0.0000000000
0.1600000000	0.0000000000	1.0000000000	0.0000000000	1.0000000000	0.0000000000	0.0000000000	-104.1160630597	1.0000000000	822.7260909454	1.0000000000	0.0000000000	0.0000000000
0.1700000000	0.0000000000	1.0000000000	0.0000000000	1.0000000000	0.0000000000	0.0000000000	-94.5681123549	1.0000000000	805.4329782104	1.0000000000	0.0000000000	0.0000000000
0.1800000000	0.0000000000	1.0000000000	0.0000000000	1.0000000000	0.0000000000	0.0000000000	-86.3143732026	1.0000000000	781.8590224941	1.0000000000	0.0000000000	0.0000000000
0.1900000000	0.0000000000	1.0000000000	0.0000000000	1.0000000000	0.0000000000	0.0000000000	-78.8372660745	1.0000000000	753.9083013578	1.0000000000	0.0000000000	0.0000000000
0.2000000000	0.0000000000	1.0000000000	0.0000000000	1.0000000000	0.0000000000	0.0000000000	-71.0307429292	1.0000000000	723.1082671753	1.0000000000	0.0000000000	0.0000000000
0.2100000000	1.0922826601	1.0000000000	0.2016675030	1.0000000000	0.0000000000	0.0000000000	-63.8052195909	1.0000000000	690.8069260351	1.0000000000	0.0000000000	0.0000000000
0.2200000000	0.7620363629	1.0000000000	0.3402681415	1.0000000000	0.0000000000	0.0000000000	-57.8000683710	1.0000000000	658.3841282612	1.0000000000	0.0000000000	0.0000000000
0.2300000000	1.0081688744	1.0000000000	0.4450192393	1.0000000000	0.0000000000	0.0000000000	-52.0523765208	1.0000000000	627.1368119667	1.0000000000	0.0000000000	0.0000000000
0.2400000000	1.4955052262	1.0000000000	0.4725927990	1.0000000000	0.0000000000	0.0000000000	-46.5124439054	1.0000000000	597.9975663415	1.0000000000	0.0000000000	0.0000000000
0.2500000000	1.0483040343	1.0000000000	0.3458420750	1.0000000000	0.0000000000	0.0000000000	-41.8704287886	1.0000000000	571.8363741552	1.0000000000	0.0000000000	0.0000000000
0.2600000000	0.5956251832	1.0000000000	0.2356174686	1.0000000000	0.0000000000	0.0000000000	-37.5600588973	1.0000000000	549.8760830466	1.0000000000	0.0000000000	0.0000000000
0.2700000000	0.9480805369	1.0000000000	0.2560582784	1.0000000000	0.0000000000	0.0000000000	-32.7307293625	1.0000000000	533.1002677469	1.0000000000	0.0000000000	0.0000000000
0.2800000000	0.9828913282	1.0000000000	0.2504965164	1.0000000000	0.0000000000	0.0000000000	-27.9534875769	1.0000000000	521.4274279256	1.0000000000	0.0000000000	0.0000000000
0.2900000000	0.4563785607	1.0000000000	0.1214314021	1.0000000000	0.0000000000	0.0000000000	-23.4087978224	1.0000000000	513.8977464630	1.0000000000	0.0000000000	0.0000000000
0.3000000000	0.4713561477	1.0000000000	0.0278317908	1.0000000000	0.0000000000	0.0000000000	-18.3071818480	1.0000000000	509.7995513765	1.0000000000	0.0000000000	0.0000000000
0.3100000000	0.7376460505	1.0000000000	0.0773934298	1.0000000000	0.0000000000	0.0000000000	-12.9141213622	1.0000000000	508.9735245401	1.0000000000	0.0000000000	0.0000000000
0.3200000000	0.3267991713	1.0000000000	0.1387702024	1.0000000000	0.0000000000	0.0000000000	-7.8018252576	1.0000000000	510.9338977212	1.0000000000	0.0000000000	0.0000000000
0.3300000000	-0.0337686541	1.0000000000	0.1045233537	1.0000000000	0.0000000000	0.0000000000	-2.3910880924	1.0000000000	514.7637076301	1.0000000000	0.0000000000	0.0000000000
0.3400000000	0.2201720540	1.0000000000	0.0660003004	1.0000000000	0.0000000000	0.0000000000	3.6961654364	1.0000000000	520.0404804763	1.0000000000	0.0000000000	0.0000000000
0.3500000000	0.3163580783	1.0000000000	0.1223753332	1.0000000000	0.0000000000	0.0000000000	9.7757863972	1.0000000000	527.0087400981	1.0000000000	0.0000000000	0.0000000000
0.3600000000	0.1389855961	1.0000000000	0.2053023374	1.0000000000	0.0000000000	0.0000000000	15.8562393821	1.0000000000	535.8180442037	1.0000000000	0.0000000000	0.0000000000
0.3700000000	0.3352036890	1.0000000000	0.2732514749	1.0000000000	0.0000000000	0.0000000000	22.6078113209	1.0000000000	546.3534773262	1.0000000000	0.0000000000	0.0000000000
0.3800000000	0.5839386657	1.0000000000	0.4472966555	1.0000000000	0.0000000000	0.0000000000	29.7478089086	1.0000000000	558.7049489328	1.0000000000	0.0000000000	0.0000000000
0.3900000000	0.3195159098	1.0000000000	0.7084639602	1.0000000000	0.0000000000	0.0000000000	36.9297945992	1.0000000000	572.9925132449	1.0000000000	0.0000000000	0.0000000000
0.4000000000	0.0523222346	1.0000000000	0.7466124413	1.0000000000	0.0000000000	0.0000000000	44.8014107206	1.0000000000	588.9870650608	1.0000000000	0.0000000000	0.0000000000
0.4100000000	0.0358485767	1.0000000000	0.3332435179	1.0000000000	0.0000000000	0.0000000000	53.6993691597	1.0000000000	606.4508718881	1.0000000000	0.0000000000	0.0000000000
0.4200000000	0.0000000000	1.0000000000	0.0000000000	1.0000000000	0.0000000000	0.0000000000	63.1702887226	1.0000000000	625.2555185652	1.0000000000	0.0000000000	0.0000000000
0.4300000000	0.0000000000	1.0000000000	0.0000000000	1.0000000000	0.0000000000	0.0000000000	73.4309442262	1.0000000000	644.7766000746	1.0000000000	0.0000000000	0.0000000000
0.4400000000	0.0000000000	1.0000000000	0.0000000000	1.0000000000	0.0000000000	0.0000000000	85.0678449554	1.0000000000	663.7779265183	1.0000000000	0.0000000000	0.0000000000
0.4500000000	0.0000000000	1.0000000000	0.0000000000	1.0000000000	0.0000000000	0.0000000000	97.7893748099	1.0000000000	681.0851715962	1.0000000000	0.0000000000	0.0000000000
0.4600000000	0.0000000000	1.0000000000	0.0000000000	1.0000000000	0.0000000000	0.0000000000	111.2186207811	1.0000000000	695.7037951186	1.0000000000	0.0000000000	0.0000000000
0.4700000000	0.0000000000	1.0000000000	0.0000000000	1.0000000000	0.0000000000	0.0000000000	125.5390150934	1.0000000000	706.1888531398	1.0000000000	0.0000000000	0.0000000000
0.4800000000	0.0000000000	1.0000000000	0.0000000000	1.0000000000	0.0000000000	0.0000000000	140.4214732603	1.0000000000	710.3758518277	1.0000000000	0.0000000000	0.0000000000
0.4900000000	8.9386000251	1.0000000000	7.3770672537	1.0000000000	0.0000000000	0.0000000000	154.7957513528	1.0000000000	705.6775455269	1.0000000000	0.0000000000	0.0000000000
0.5000000000	12.4679108162	1.0000000000	42.4009720539	1.0000000000	0.0000000000	0.0000000000	167.6665377124	1.0000000000	689.3534986757	1.0000000000	0.0000000000	0.0000000000
0.5100000000	13.8099373831	1.0000000000	101.3902116706	1.0000000000	0.0000000000	0.0000000000	177.5827352568	1.0000000000	658.7466449839	1.0000000000	0.0000000000	0.0000000000
0.5200000000	8.6131622207	1.0000000000	185.9665221836	1.0000000000	0.0000000000	0.0000000000	181.9541768799	1.0000000000	611.8303130067	1.0000000000	0.0000000000	0.0000000000
0.5300000000	-7.3207726647	1.0000000000	291.8010175071	1.0000000000	0.0000000000	0.0000000000	178.0032849874	1.0000000000	548.1388072286	1.0000000000	0.0000000000	0.0000000000
0.5400000000	-33.0600665296	1.0000000000	408.1642788628	1.0000000000	0.0000000000	0.0000000000	164.0106894491	1.0000000000	469.7789194469	1.0000000000	0.0000000000	0.0000000000
0.5500000000	-63.2635593769	1.0000000000	520.2822359842	1.0000000000	0.0000000000	0.0000000000	140.3662022777	1.0000000000	381.9345708829	1.0000000000	0.0000000000	0.0000000000
0.5600000000	-92.7527117582	1.0000000000	615.2514640018	1.0000000000	0.0000000000	0.0000000000	109.6187589169	1.0000000000	292.3612238005	1.0000000000	0.0000000000	0.0000000000
0.5700000000	-117.8344614586	1.0000000000	687.1269545214	1.0000000000	0.0000000000	0.0000000000	76.2611369828	1.0000000000	209.6297457392	1.0000000000	0.0000000000	0.0000000000
0.5800000000	-135.7680971653	1.0000000000	737.6277553203	1.0000000000	0.0000000000	0.0000000000	46.0727737530	1.0000000000	140.4193415462	1.0000000000	0.0000000000	0.0000000000
0.5900000000	-145.9756193883	1.0000000000	772.8078537112	1.0000000000	0.0000000000	0.0000000000	23.3975857191	1.0000000000	87.7171699891	1.0000000000	0.0000000000	0.0000000000
0.6000000000	-149.5528547503	1.0000000000	798.5419307874	1.0000000000	0.0000000000	0.0000000000	8.7714996603	1.0000000000	50.7562127655	1.0000000000	0.0000000000	0.0000000000
0.6100000000	-147.4488884798	1.0000000000	817.9642606954	1.0000000000	0.0000000000	0.0000000000	0.7846630900	1.0000000000	26.4387020226	1.0000000000	0.0000000000	0.0000000000
0.6200000000	-140.3726873622	1.0000000000	831.5451480993	1.0000000000	0.0000000000	0.0000000000	-2.2918617564	1.0000000000	11.3468002235	1.0000000000	0.0000000000	0.0000000000
